M48
; DRILL file {KiCad 8.0.2} date 2024-05-13T15:00:12+0200
; FORMAT={-:-/ absolute / inch / decimal}
; #@! TF.CreationDate,2024-05-13T15:00:12+02:00
; #@! TF.GenerationSoftware,Kicad,Pcbnew,8.0.2
; #@! TF.FileFunction,Plated,1,2,PTH
FMAT,2
INCH
; #@! TA.AperFunction,Plated,PTH,ViaDrill
T1C0.0118
; #@! TA.AperFunction,Plated,PTH,ViaDrill
T2C0.0157
; #@! TA.AperFunction,Plated,PTH,ComponentDrill
T3C0.0197
; #@! TA.AperFunction,Plated,PTH,ComponentDrill
T4C0.0236
; #@! TA.AperFunction,Plated,PTH,ComponentDrill
T5C0.0315
; #@! TA.AperFunction,Plated,PTH,ComponentDrill
T6C0.0433
; #@! TA.AperFunction,Plated,PTH,ComponentDrill
T7C0.0984
%
G90
G05
T1
X4.17Y-4.37
X4.1775Y-4.46
X4.21Y-3.77
X4.36Y-4.185
X4.47Y-4.05
X4.5Y-4.61
X4.61Y-4.19
X4.63Y-3.67
X4.72Y-3.83
X4.77Y-4.11
X4.78Y-4.29
X4.82Y-3.87
X4.84Y-2.38
X4.8597Y-4.29
X4.87Y-3.84
X4.91Y-4.26
X4.95Y-4.52
X4.96Y-5.64
X4.98Y-4.45
X5.02Y-4.25
X5.06Y-4.25
X5.1Y-4.32
X5.17Y-4.18
X5.24Y-2.38
X5.25Y-4.32
X5.29Y-4.19
X5.33Y-3.78
X5.34Y-4.19
X5.34Y-4.38
X5.39Y-4.55
X5.4706Y-3.4694
X5.48Y-3.83
X5.51Y-3.86
X5.52Y-3.91
X5.53Y-4.12
X5.56Y-4.66
X5.6Y-4.12
X5.635Y-2.395
X5.64Y-3.07
X5.7Y-2.22
X5.7Y-3.67
X5.71Y-4.31
X5.8Y-3.67
X5.84Y-2.71
X5.93Y-3.84
X5.9672Y-4.24
X6.11Y-3.77
X6.11Y-4.35
X6.11Y-4.54
X6.24Y-2.47
X6.28Y-2.81
X6.3858Y-2.4134
X6.41Y-2.57
X6.52Y-2.35
X6.64Y-4.68
X6.69Y-4.04
X6.76Y-3.68
X6.78Y-2.67
X6.8Y-2.53
X6.81Y-3.82
X6.83Y-3.67
X6.86Y-2.5845
X6.8819Y-2.1299
X6.99Y-4.1
X6.995Y-4.005
X7.0591Y-2.3937
X7.0663Y-3.0937
X7.07Y-3.18
X7.08Y-4.24
X7.1Y-3.65
X7.24Y-3.34
X7.3307Y-2.39
X7.39Y-2.3333
X7.39Y-2.82
X7.45Y-2.54
X7.4606Y-3.8189
X7.5213Y-5.0013
X7.5433Y-2.2087
X7.6492Y-3.5507
X7.6785Y-5.1529
T2
X4.3Y-3.74
X4.33Y-3.14
X4.52Y-4.48
X4.55Y-3.65
X4.56Y-3.95
X4.785Y-3.705
X4.81Y-2.93
X4.81Y-4.61
X4.92Y-4.34
X4.98Y-5.8
X5.18Y-4.79
X5.18Y-5.31
X5.38Y-4.96
X5.39Y-5.32
X5.43Y-4.31
X5.51Y-3.73
X5.51Y-4.54
X5.53Y-3.48
X5.59Y-5.33
X5.72Y-4.01
X5.75Y-5.52
X5.79Y-4.51
X5.81Y-4.06
X5.82Y-4.36
X5.83Y-2.6
X5.97Y-5.58
X5.99Y-3.71
X5.99Y-4.03
X6.06Y-3.45
X6.08Y-2.49
X6.08Y-2.56
X6.22Y-5.81
X6.24Y-4.97
X6.3Y-2.91
X6.35Y-5.02
X6.4Y-3.48
X6.45Y-5.09
X6.5062Y-3.11
X6.52Y-4.16
X6.53Y-3.19
X6.55Y-4.26
X6.57Y-3.27
X6.6Y-2.87
X6.61Y-2.28
X6.61Y-2.5039
X6.63Y-2.02
X6.73Y-3.62
X6.74Y-2.48
X6.74Y-2.61
X6.7491Y-3.2109
X6.8Y-2.48
X6.83Y-2.63
X6.83Y-4.54
X6.8443Y-4.291
X6.89Y-2.63
X6.91Y-2.51
X6.91Y-3.44
X6.94Y-2.65
X7.0Y-2.59
X7.01Y-4.36
X7.02Y-2.51
X7.02Y-3.01
X7.03Y-2.46
X7.05Y-3.73
X7.06Y-2.63
X7.09Y-4.06
X7.1097Y-3.0682
X7.2Y-3.92
X7.26Y-2.82
X7.28Y-4.98
X7.33Y-2.52
X7.34Y-2.65
X7.34Y-2.85
X7.53Y-4.57
T3
X4.001Y-2.1063
X4.001Y-5.7677
X4.0226Y-2.0541
X4.0226Y-2.1585
X4.0226Y-5.7155
X4.0226Y-5.8199
X4.0748Y-2.0325
X4.0748Y-2.1801
X4.0748Y-5.6939
X4.0748Y-5.8415
X4.127Y-2.0541
X4.127Y-2.1585
X4.127Y-5.7155
X4.127Y-5.8199
X4.1486Y-2.1063
X4.1486Y-5.7677
X7.6624Y-2.1063
X7.6624Y-5.7677
X7.684Y-2.0541
X7.684Y-2.1585
X7.684Y-5.7155
X7.684Y-5.8199
X7.7362Y-2.0325
X7.7362Y-2.1801
X7.7362Y-5.6939
X7.7362Y-5.8415
X7.7884Y-2.0541
X7.7884Y-2.1585
X7.7884Y-5.7155
X7.7884Y-5.8199
X7.81Y-2.1063
X7.81Y-5.7677
T5
X5.0296Y-5.1304
X5.0296Y-5.4304
X5.1296Y-5.1304
X5.1296Y-5.4304
X5.2296Y-5.1304
X5.2296Y-5.4304
X5.3296Y-5.1304
X5.3296Y-5.4304
X5.4296Y-5.1304
X5.4296Y-5.4304
X5.5296Y-5.1304
X5.5296Y-5.4304
X5.6296Y-5.1304
X5.6296Y-5.4304
X5.7296Y-5.1304
X5.7296Y-5.4304
X5.8296Y-5.1304
X5.8296Y-5.4304
T6
X7.6524Y-3.6376
X7.6524Y-3.7376
X7.6524Y-3.8376
T7
X4.0748Y-2.1063
X4.0748Y-5.7677
X7.7362Y-2.1063
X7.7362Y-5.7677
T4
G00X7.6112Y-2.3063
M15
G01X7.6506Y-2.3063
M16
G05
G00X7.6112Y-2.6465
M15
G01X7.6506Y-2.6465
M16
G05
G00X7.7559Y-2.3063
M15
G01X7.8071Y-2.3063
M16
G05
G00X7.7559Y-2.6465
M15
G01X7.8071Y-2.6465
M16
G05
M30
